# xmcd CD database file
#
# Track frame offsets:
#	150
#	15862
#	39187
#	60650
#	76087
#	95862
#	109450
#	131675
#	153095
#	178837
#	190575
#
# Disc length: 2831 seconds
#
# Revision: 0
# Processed by: cddbd v1.5PL3 Copyright (c) Steve Scherf et al.
# Submitted via: CDex 1.51
#
DISCID=800b0d0b
DTITLE=楠瀬誠志郎 - 'Eternally'
DYEAR=1995
DGENRE=J-Pop
TTITLE0=Love You Eternally
TTITLE1=2月1日、晴れ
TTITLE2=終わるね、夏が〜ヴィニエット・ガール〜（Remix Version）
TTITLE3=Lady Pink Panther
TTITLE4=カナリア（Remix Version）
TTITLE5=手をつないでいて
TTITLE6=25日のDaydream
TTITLE7=夜明けのさよなら
TTITLE8=Believe（Live At "Hayama Soft Rock Cafe"'92 ）
TTITLE9=face to face
TTITLE10=しあわせまだかい（Remix Version）
EXTD=YEAR: 1995
EXTT0=
EXTT1=
EXTT2=
EXTT3=
EXTT4=
EXTT5=
EXTT6=
EXTT7=
EXTT8=
EXTT9=
EXTT10=
PLAYORDER=
